REM DIRINDEX 1\2,1\3
REM DIRNAME folder01,folder02,folder03
TITLE ""
FILE "CD2Track16.mp3" MP3
  TRACK 01 AUDIO
    TITLE "0:"
    INDEX 01 00:00:00
  TRACK 02 AUDIO
    TITLE "3:cjc102_3006"
    INDEX 01 00:00:27
  TRACK 03 AUDIO
    TITLE "0:"
    INDEX 01 00:01:22
  TRACK 04 AUDIO
    TITLE "2:cjc102_3007"
    INDEX 01 00:02:36
  TRACK 05 AUDIO
    TITLE "0:"
    INDEX 01 00:03:37
  TRACK 06 AUDIO
    TITLE "3:cjc102_3008"
    INDEX 01 00:04:21
  TRACK 07 AUDIO
    TITLE "0:"
    INDEX 01 00:05:05
  TRACK 08 AUDIO
    TITLE "2:cjc102_3009"
    INDEX 01 00:05:46
  TRACK 09 AUDIO
    TITLE "0:"
    INDEX 01 00:06:59
  TRACK 10 AUDIO
    TITLE "3:cjc102_3010"
    INDEX 01 00:07:27
  TRACK 11 AUDIO
    TITLE "0:"
    INDEX 01 00:08:26
  TRACK 12 AUDIO
    TITLE "2:cjc102_3011"
    INDEX 01 00:08:58
  TRACK 13 AUDIO
    TITLE "0:"
    INDEX 01 00:09:61
  TRACK 14 AUDIO
    TITLE "3:cjc102_3012"
    INDEX 01 00:10:65
  TRACK 15 AUDIO
    TITLE "0:"
    INDEX 01 00:11:62
  TRACK 16 AUDIO
    TITLE "2:cjc102_3013"
    INDEX 01 00:12:32
  TRACK 17 AUDIO
    TITLE "0:"
    INDEX 01 00:13:41
  TRACK 18 AUDIO
    TITLE "3:cjc102_3014"
    INDEX 01 00:14:35
  TRACK 19 AUDIO
    TITLE "0:"
    INDEX 01 00:15:17
  TRACK 20 AUDIO
    TITLE "2:cjc102_3015"
    INDEX 01 00:16:34
  TRACK 21 AUDIO
    TITLE "0:"
    INDEX 01 00:17:35
  TRACK 22 AUDIO
    TITLE "3:cjc102_3016"
    INDEX 01 00:18:50
  TRACK 23 AUDIO
    TITLE "0:"
    INDEX 01 00:19:46
  TRACK 24 AUDIO
    TITLE "2:cjc102_3017"
    INDEX 01 00:19:63
  TRACK 25 AUDIO
    TITLE "0:"
    INDEX 01 00:20:71
  TRACK 26 AUDIO
    TITLE "3:cjc102_3018"
    INDEX 01 00:22:15
  TRACK 27 AUDIO
    TITLE "0:"
    INDEX 01 00:23:10
  TRACK 28 AUDIO
    TITLE "2:cjc102_3019"
    INDEX 01 00:23:59
  TRACK 29 AUDIO
    TITLE "0:"
    INDEX 01 00:24:59
  TRACK 30 AUDIO
    TITLE "3:cjc102_3020"
    INDEX 01 00:26:05
  TRACK 31 AUDIO
    TITLE "0:"
    INDEX 01 00:27:02
  TRACK 32 AUDIO
    TITLE "2:cjc102_3021"
    INDEX 01 00:27:57
  TRACK 33 AUDIO
    TITLE "0:"
    INDEX 01 00:28:55
  TRACK 34 AUDIO
    TITLE "3:cjc102_3022"
    INDEX 01 00:29:44
  TRACK 35 AUDIO
    TITLE "0:"
    INDEX 01 00:30:38
  TRACK 36 AUDIO
    TITLE "2:cjc102_3023"
    INDEX 01 00:31:39
  TRACK 37 AUDIO
    TITLE "0:"
    INDEX 01 00:32:50
  TRACK 38 AUDIO
    TITLE "3:cjc102_3024"
    INDEX 01 00:33:30
  TRACK 39 AUDIO
    TITLE "0:"
    INDEX 01 00:34:26
  TRACK 40 AUDIO
    TITLE "2:cjc102_3025"
    INDEX 01 00:35:41
  TRACK 41 AUDIO
    TITLE "0:"
    INDEX 01 00:36:36
  TRACK 42 AUDIO
    TITLE "3:cjc102_3026"
    INDEX 01 00:37:40
  TRACK 43 AUDIO
    TITLE "0:"
    INDEX 01 00:38:55
  TRACK 44 AUDIO
    TITLE "2:cjc102_3027"
    INDEX 01 00:40:09
  TRACK 45 AUDIO
    TITLE "0:"
    INDEX 01 00:41:12
  TRACK 46 AUDIO
    TITLE "3:cjc102_3028"
    INDEX 01 00:42:23
  TRACK 47 AUDIO
    TITLE "0:"
    INDEX 01 00:43:35
  TRACK 48 AUDIO
    TITLE "2:cjc102_3029"
    INDEX 01 00:44:50
  TRACK 49 AUDIO
    TITLE "0:"
    INDEX 01 00:45:53
  TRACK 50 AUDIO
    TITLE "3:cjc102_3030"
    INDEX 01 00:46:70
  TRACK 51 AUDIO
    TITLE "0:"
    INDEX 01 00:48:14
  TRACK 52 AUDIO
    TITLE "2:cjc102_3031"
    INDEX 01 00:48:69
  TRACK 53 AUDIO
    TITLE "0:"
    INDEX 01 00:49:69
  TRACK 54 AUDIO
    TITLE "3:cjc102_3032"
    INDEX 01 00:50:48
  TRACK 55 AUDIO
    TITLE "0:"
    INDEX 01 00:51:67
  TRACK 56 AUDIO
    TITLE "2:cjc102_3033"
    INDEX 01 00:52:55
  TRACK 57 AUDIO
    TITLE "0:"
    INDEX 01 00:53:62
  TRACK 58 AUDIO
    TITLE "3:cjc102_3034"
    INDEX 01 00:55:34
  TRACK 59 AUDIO
    TITLE "0:"
    INDEX 01 00:56:41
  TRACK 60 AUDIO
    TITLE "2:cjc102_3035"
    INDEX 01 00:57:27
  TRACK 61 AUDIO
    TITLE "0:"
    INDEX 01 00:58:24
  TRACK 62 AUDIO
    TITLE "3:cjc102_3036"
    INDEX 01 00:59:16
  TRACK 63 AUDIO
    TITLE "0:"
    INDEX 01 01:00:27
  TRACK 64 AUDIO
    TITLE "2:cjc102_3037"
    INDEX 01 01:01:21
  TRACK 65 AUDIO
    TITLE "0:"
    INDEX 01 01:02:32
  TRACK 66 AUDIO
    TITLE "3:cjc102_3038"
    INDEX 01 01:03:47
  TRACK 67 AUDIO
    TITLE "0:"
    INDEX 01 01:04:68
  TRACK 68 AUDIO
    TITLE "2:cjc102_3039"
    INDEX 01 01:05:22
  TRACK 69 AUDIO
    TITLE "0:"
    INDEX 01 01:06:43
  TRACK 70 AUDIO
    TITLE "3:cjc102_3040"
    INDEX 01 01:07:39
  TRACK 71 AUDIO
    TITLE "0:"
    INDEX 01 01:08:62
  TRACK 72 AUDIO
    TITLE "2:cjc102_3041"
    INDEX 01 01:09:07
  TRACK 73 AUDIO
    TITLE "0:"
    INDEX 01 01:10:20
  TRACK 74 AUDIO
    TITLE "3:cjc102_3042"
    INDEX 01 01:12:05
  TRACK 75 AUDIO
    TITLE "0:"
    INDEX 01 01:13:24
  TRACK 76 AUDIO
    TITLE "2:cjc102_3043"
    INDEX 01 01:13:26
  TRACK 77 AUDIO
    TITLE "0:"
    INDEX 01 01:14:41
  TRACK 78 AUDIO
    TITLE "3:cjc102_3044"
    INDEX 01 01:15:74
  TRACK 79 AUDIO
    TITLE "0:"
    INDEX 01 01:17:10
  TRACK 80 AUDIO
    TITLE "2:cjc102_3045"
    INDEX 01 01:17:39
  TRACK 81 AUDIO
    TITLE "0:"
    INDEX 01 01:18:54
